<svg xmlns="http://www.w3.org/2000/svg" viewBox="0 0 800 800">
  <g fill="none" fill-rule="evenodd">
    <path fill="#FFB7C5" d="M553 274c45 78 25 208-54 272-79 63-208 47-272-54-45-78-25-208 54-272 79-63 208-47 272 54z"/>
    <path fill="#FF6B8B" d="M410 170c45 78 25 208-54 272-79 63-208 47-272-54-45-78-25-208 54-272 79-63 208-47 272 54z"/>
    <path fill="#E63946" d="M553 66c45 78 25 208-54 272-79 63-208 47-272-54-45-78-25-208 54-272 79-63 208-47 272 54z"/>
    <path fill="#2F4F4F" d="M263 715.1V577.3h25.5c8.9 0 16.6 1.1 23.1 3.4 6.5 2.3 11.7 5.8 15.6 10.6 3.9 4.8 6.7 10.9 8.5 18.3 1.8 7.4 2.7 16.2 2.7 26.5v24.2c0 10.3-.9 19.1-2.7 26.5-1.8 7.4-4.6 13.5-8.5 18.3-3.9 4.8-9.1 8.3-15.6 10.6-6.5 2.3-14.2 3.4-23.1 3.4H263zm19.8-121v104.2h5.7c6.1 0 11-1.1 14.6-3.2 3.6-2.1 6.2-5.4 7.9-9.7 1.7-4.3 2.5-9.8 2.5-16.3v-25.5c0-6.6-.8-12-2.5-16.3-1.7-4.3-4.3-7.6-7.9-9.7-3.6-2.1-8.5-3.2-14.6-3.2h-5.7zm88.1 121V577.3h42.8c8.9 0 16.4 1.7 22.5 5.1 6.1 3.4 10.7 8.2 13.8 14.4 3.1 6.2 4.7 13.4 4.7 21.8 0 8.3-1.5 15.6-4.6 21.9-3.1 6.3-7.7 11.2-13.9 14.5-6.2 3.4-13.8 5-22.9 5h-22.6v55.1h-19.8zm19.8-73h22.4c6.1 0 10.5-1.4 13.2-4.3 2.7-2.9 4.1-7.4 4.1-13.5 0-6.2-1.4-10.8-4.1-13.8-2.7-3-7.1-4.5-13.2-4.5h-22.4v36.1zm83.7 73l-31.3-137.8h20.6l21.8 104.9h.8l20.6-104.9h20.4L396 715.1h-20.6zm92.5 1.8c-6.5 0-12.2-1.6-17.2-4.7-5-3.1-8.9-7.5-11.7-13.1-2.8-5.6-4.2-12.2-4.2-19.8v-6.8c0-7.9 1.2-14.8 3.7-20.7 2.5-5.9 6.2-10.5 11.1-13.8 4.9-3.3 10.8-5 17.8-5 6.4 0 11.8 1.5 16.3 4.5 4.5 3 7.8 7.2 10.1 12.7 2.3 5.5 3.4 12 3.4 19.5v10.2h-43.4v1.4c0 5 1.2 9 3.5 12 2.3 3 5.8 4.5 10.4 4.5 3.2 0 6-1 8.3-2.9 2.3-1.9 3.5-4.3 3.5-7.2h17.6c0 4.8-1.3 9.1-3.9 13-2.6 3.9-6.4 7-11.2 9.2-4.8 2.2-10.3 3.3-16.5 3.3v2.7zm-2.9-64.9c-3.8 0-6.9 1.4-9.2 4.1-2.3 2.7-3.5 6.7-3.5 11.8v1.4h25v-1.4c0-5-1.1-8.9-3.2-11.8-2.1-2.9-5.2-4.3-9.1-4.3v.2zm59 63.1v-97h18v97h-18zm0-110.6V577h18v27.5h-18z"/>
  </g>
</svg>